<?xml version="1.0" encoding="utf-8"?>
<!-- Generator: Adobe Illustrator 28.2.0, SVG Export Plug-In . SVG Version: 6.00 Build 0)  -->
<svg version="1.1" id="Layer_1" xmlns="http://www.w3.org/2000/svg" xmlns:xlink="http://www.w3.org/1999/xlink" x="0px" y="0px"
	 viewBox="0 0 1901.1 986.2" style="enable-background:new 0 0 1901.1 986.2;" xml:space="preserve">
<style type="text/css">
	.st0{opacity:0.6;}
	.st1{opacity:0.588;fill:none;stroke:#CEA1C9;stroke-width:5;enable-background:new    ;}
	.st2{opacity:0.6;fill:none;stroke:#FACECE;stroke-width:4;enable-background:new    ;}
	.st3{fill:none;stroke:#EEEEEE;stroke-width:5;stroke-opacity:0;}
	.st4{fill:#CEA1C9;}
	.st5{opacity:0.2;fill:#78BAAE;enable-background:new    ;}
	.st6{fill:#78BAAE;}
	.st7{opacity:0.7;fill:#78BAAE;enable-background:new    ;}
	.st8{fill:#FACECE;}
	.st9{opacity:0.2;fill:#E6E6E6;enable-background:new    ;}
	.st10{opacity:0.2;fill:#94C0D4;enable-background:new    ;}
	.st11{opacity:0.2;fill:#CEA1C9;enable-background:new    ;}
	.st12{opacity:0.8;fill:#FACECE;enable-background:new    ;}
	.st13{opacity:0.6;fill:#CEA1C9;enable-background:new    ;}
</style>
<g transform="translate(-17 -94.255)" class="st0">
	<path class="st1" d="M133.9,177.8c0,0,29.3,95.7,83.4,76.1s89.6,14,87.1,43.2"/>
	<path class="st2" d="M1817.6,320.4c0,0,20.6,150,52.1,108.1c17.6-23.3,36.3-54,46.8-64.9"/>
	<path class="st3" d="M1398,925c0,0,42.6,89.2,108.5,99s116.6,18.3,113.4,56.2"/>
	<circle class="st4" cx="1398.5" cy="906.5" r="31.5"/>
	<path class="st5" d="M841.6,297.1c44.4,0,80.5,36,80.5,80.4S886,458,841.6,458s-80.5-36-80.5-80.4c0,0,0,0,0,0
		C761.1,333.1,797.1,297.1,841.6,297.1z"/>
	<path class="st6" d="M219.2,670.7c-39.9,0-72.2-32.3-72.3-72.2c0-39.9,32.3-72.2,72.2-72.3c0,0,0,0,0.1,0V670.7z"/>
	<path class="st7" d="M1637,765.2h94.9v94.9c-12.5,0-24.8-2.5-36.3-7.2c-11.5-4.8-22-11.8-30.8-20.6c-8.8-8.8-15.8-19.3-20.6-30.8
		C1639.5,790,1637,777.7,1637,765.2L1637,765.2z"/>
	<path class="st8" d="M1829.1,322.7c-10.9,0-21.7-2.1-31.8-6.3c-10.1-4.2-19.2-10.3-26.9-17.9c-7.7-7.7-13.8-16.8-18-26.8
		c-8.4-20.3-8.4-43.1,0-63.3c4.2-10,10.3-19.2,18-26.8c7.7-7.7,16.9-13.8,26.9-17.9c10.1-4.2,20.9-6.3,31.8-6.3V322.7z"/>
	<path class="st9" d="M451.3,120.6c30.1,0,54.5,24.4,54.5,54.5l0,0v54.5h-109v-54.5C396.8,145,421.2,120.6,451.3,120.6z"/>
	<path class="st10" d="M843.3,937.5c0,14.3-2.8,28.5-8.3,41.7c-5.5,13.2-13.5,25.2-23.6,35.4c-10.1,10.1-22.1,18.2-35.4,23.6
		c-13.2,5.5-27.4,8.3-41.7,8.3v-109H843.3z"/>
	<path class="st11" d="M1132.8,706.4c-11,0-21.6-4.4-29.3-12.2c-16.3-16.3-16.2-42.8,0.1-59c3.8-3.8,8.4-6.9,13.4-8.9
		c5-2.1,10.4-3.2,15.9-3.2V706.4z"/>
	<path class="st5" d="M1295.8,540c10.9,0,21.7,2.1,31.8,6.3c10.1,4.2,19.3,10.3,27,18c7.7,7.7,13.9,16.9,18,26.9
		c8.4,20.3,8.4,43.2,0,63.5c-4.2,10.1-10.3,19.2-18,26.9c-7.7,7.7-16.9,13.8-27,18c-10.1,4.2-20.9,6.3-31.8,6.3V540z"/>
	<path class="st12" d="M17,980.3c0-30.1,24.4-54.5,54.5-54.5H126v109H71.5C41.4,1034.8,17,1010.4,17,980.3z"/>
	<path class="st13" d="M175.8,178H92V94.3c11,0,21.9,2.2,32.1,6.4c10.2,4.2,19.4,10.4,27.2,18.2c7.8,7.8,13.9,17,18.2,27.2
		C173.6,156.1,175.8,167,175.8,178L175.8,178z"/>
</g>
</svg>
